# xmcd
#
# Track frame offsets: 
#        150
#        15610
#        34228
#        47343
#        63900
#        76842
#        88899
#        102933
#        120716
#        138327
#        168428
#        182987
#
# Disc length: 2670 seconds
#
# Revision: 0
# Processed by: cddbd v1.5.2PL0 Copyright (c) Steve Scherf et al.
# Submitted via: ExactAudioCopy v0.95b4
#
DISCID=970a6c0c
DTITLE=Various Artist - Diesel-U-Music 2007
DYEAR=2007
DGENRE=Other
TTITLE0=Cool Kids/I Rock
TTITLE1=Get Shakes/Day Like Today
TTITLE2=The Features/I Will Wander
TTITLE3=The Steers/Rewind Repeat
TTITLE4=Bo Pepper/Goodcopbadcop
TTITLE5=Revenue/Deadman
TTITLE6=The Clik Clik/Paris Hilton
TTITLE7=Alex Blood/Say Hello
TTITLE8=Iman/Who Was I Trying To Fool?
TTITLE9=Get Shakes/Sister Self Doubt
TTITLE10=The Electric Riot/Mods, Rockers, Teds and Skins
TTITLE11=My Toys Like Me/Sick Couple
EXTD=
EXTT0=
EXTT1=
EXTT2=
EXTT3=
EXTT4=
EXTT5=
EXTT6=
EXTT7=
EXTT8=
EXTT9=
EXTT10=
EXTT11=
PLAYORDER=
